<svg width="74" height="74" viewBox="0 0 74 74" fill="none" xmlns="http://www.w3.org/2000/svg">
<circle cx="37" cy="37" r="36.5" stroke="#AF94CE"/>
<path d="M26.208 24.3585C26.208 25.1355 26.4708 25.8015 27.034 26.3195C27.5972 26.8375 28.2354 27.1335 29.0238 27.1335C29.8123 27.1335 30.4881 26.8745 31.0137 26.3195C31.5393 25.7645 31.8397 25.1355 31.8397 24.3585C31.8397 23.5815 31.5769 22.9155 31.0137 22.3975C30.4505 21.8795 29.8123 21.5835 29.0238 21.5835C28.2354 21.5835 27.5596 21.8425 27.034 22.3975C26.5084 22.9525 26.208 23.5815 26.208 24.3585ZM43.2907 28.9835C43.0279 28.9835 42.7651 29.0205 42.5023 29.0575C42.2395 29.0945 42.0142 29.1685 41.7514 29.2425C41.4886 29.3165 41.3384 29.3905 41.1507 29.4275C41.0005 29.5015 40.8128 29.5755 40.55 29.7235C40.3247 29.8715 40.1745 29.9455 40.0994 29.9825C40.0243 30.0195 39.9117 30.1305 39.6489 30.3155C39.3861 30.5005 39.3485 30.6115 39.3485 30.6115V28.9835H33.792V49.3335H39.3485V36.2725C39.3485 36.1615 39.3861 35.9395 39.4987 35.6435C39.6114 35.3475 39.724 35.0885 39.9117 34.8665C40.0994 34.6445 40.3622 34.4595 40.7752 34.2745C41.1882 34.0895 41.6763 33.9785 42.2019 33.9785C43.1405 33.9785 43.8163 34.2005 44.2669 34.6815C44.7174 35.1625 44.9427 35.7545 44.9427 36.5315V49.3335H50.8747V36.7165C50.8747 35.3845 50.6494 34.2005 50.2364 33.2015C49.8234 32.2025 49.2978 31.4625 48.7346 30.9445C48.1715 30.4265 47.4957 29.9825 46.7448 29.6865C45.9939 29.3535 45.3556 29.1685 44.7925 29.0945C44.3044 29.0205 43.7788 28.9835 43.2907 28.9835V28.9835ZM26.2831 49.3335H31.8397V28.9835H26.2831V49.3335Z" fill="#AF94CE"/>
</svg>
