<svg width="1112" height="741" viewBox="0 0 1112 741" fill="none" xmlns="http://www.w3.org/2000/svg">
<g clip-path="url(#clip0)">
<mask id="mask0" mask-type="alpha" maskUnits="userSpaceOnUse" x="0" y="0" width="1112" height="742">
<path d="M0 0.0302734H1112V741.001H0V0.0302734Z" fill="white"/>
</mask>
<g mask="url(#mask0)">
<path fill-rule="evenodd" clip-rule="evenodd" d="M834.015 -4.58086C863.082 40.017 918.779 50.4228 958.166 54.3709C979.345 56.4939 1000.98 57.0481 1020.07 57.5372L1020.43 57.5461C1023.46 57.6239 1026.46 57.7009 1029.41 57.7832C1050.42 58.3671 1070.45 59.1978 1084.67 62.9042C1096.97 66.112 1106.1 74.0592 1113.38 87.9152C1116.41 93.7032 1118.86 99.9972 1120.84 105.391C1121.33 106.691 1121.8 107.984 1122.26 109.259L1122.29 109.349C1123.89 113.737 1125.4 117.882 1127.05 121.617C1129.41 127.019 1131.67 130.684 1134.17 133.152C1137 135.956 1140.26 137.241 1144.1 137.08C1148.58 136.892 1153.89 134.804 1160.35 130.7C1167.44 126.197 1175.64 119.427 1185.43 110.004C1218.14 73.2353 1237.12 35.3242 1243.42 -5.85538L1243.47 -6.11695C1251.47 -52.7681 1245.63 -101.146 1227.04 -142.373C1208.87 -182.263 1179.73 -205.078 1141.57 -227.063C1102.93 -249.095 1055.57 -261.587 1008.21 -262.238C958.203 -262.905 912.247 -250.757 875.374 -227.048L875.307 -227.005C857.552 -215.735 842.755 -201.609 831.316 -185.02C820.404 -169.195 812.768 -151.494 808.639 -132.408C799.431 -89.9085 808.639 -43.3855 833.896 -4.76907L834.015 -4.58086ZM1143.45 138.576C1139.48 138.576 1136.1 137.142 1133.13 134.205C1130.5 131.602 1128.13 127.791 1125.68 122.212C1124.03 118.434 1122.51 114.267 1120.9 109.856L1120.87 109.764C1120.41 108.491 1119.93 107.202 1119.45 105.904C1117.38 100.285 1115.05 94.3012 1112.06 88.6036C1104.99 75.1441 1096.16 67.4332 1084.3 64.3388C1070.23 60.6716 1050.28 59.8461 1029.36 59.2645C1026.42 59.1822 1023.43 59.1059 1020.39 59.0281L1020.03 59.0184C1000.92 58.5286 979.249 57.9744 958.017 55.8455C929.35 52.9719 906.087 47.6574 886.894 39.5991C862.86 29.5074 845.12 15.2594 832.65 -3.95767L832.532 -4.14292C807.156 -43.0528 797.919 -89.9048 807.186 -132.721C811.359 -151.998 819.069 -169.876 830.093 -185.861C841.658 -202.633 856.625 -216.91 874.565 -228.293L874.632 -228.332C911.736 -252.173 957.928 -264.419 1008.24 -263.72C1055.84 -263.065 1103.45 -250.504 1142.31 -228.349C1180.72 -206.22 1210.06 -183.236 1228.39 -142.984C1247.13 -101.439 1252.99 -52.6866 1244.9 -5.69457V-5.43967L1244.85 -5.38707C1238.46 35.9904 1219.37 74.0726 1186.5 111.029C1176.59 120.564 1168.31 127.393 1161.15 131.951C1154.46 136.199 1148.91 138.361 1144.16 138.56C1143.92 138.571 1143.68 138.576 1143.45 138.576Z" fill="white"/>
<path fill-rule="evenodd" clip-rule="evenodd" d="M903.307 -47.8872C927.482 -10.8402 973.801 -2.18753 1006.56 1.09732C1024.19 2.86461 1042.21 3.32624 1058.11 3.73379L1058.77 3.75084C1061.18 3.81308 1063.57 3.87458 1065.92 3.93905C1083.44 4.42663 1100.15 5.1202 1112.02 8.21461C1122.36 10.9081 1130.01 17.5705 1136.1 29.1827C1138.62 33.9777 1140.59 39.0291 1142.34 43.7737C1142.57 44.411 1142.81 45.0497 1143.04 45.6833L1143.52 46.9956C1144.97 50.974 1146.18 54.2544 1147.5 57.2829C1149.47 61.7696 1151.34 64.7996 1153.38 66.8173C1155.73 69.1359 1158.3 70.1555 1161.47 70.0207C1165.12 69.8665 1169.63 68.0911 1174.9 64.7425C1180.78 61.0005 1187.6 55.3704 1195.75 47.5291C1222.95 16.9584 1238.75 -14.5741 1244 -48.8275L1244.02 -48.9113C1250.72 -87.8019 1245.87 -128.145 1230.38 -162.508C1215.26 -195.691 1191.01 -214.675 1159.25 -232.971C1127.09 -251.309 1087.66 -261.709 1048.25 -262.25C1006.6 -262.839 968.367 -252.696 937.683 -232.965L937.616 -232.922C908.905 -214.689 889.215 -186.754 882.179 -154.258C874.521 -118.906 882.179 -80.2045 903.189 -48.0747L903.307 -47.8872ZM1160.94 71.5138C1157.64 71.5138 1154.82 70.3193 1152.34 67.8725C1150.16 65.7177 1148.18 62.5418 1146.14 57.8772C1144.8 54.8079 1143.58 51.5053 1142.13 47.5054L1141.65 46.1916C1141.42 45.5618 1141.19 44.9275 1140.94 44.2902C1139.21 39.5893 1137.26 34.592 1134.79 29.8711C1128.9 18.6553 1121.55 12.2294 1111.65 9.64919C1099.92 6.59331 1083.3 5.90566 1065.87 5.42031C1063.52 5.35584 1061.14 5.29434 1058.74 5.23284L1058.1 5.21579C1042.15 4.8075 1024.1 4.34512 1006.41 2.57191C982.526 0.176994 963.14 -4.25122 947.15 -10.9669C927.119 -19.3765 912.337 -31.2503 901.943 -47.2648L901.825 -47.4493C880.689 -79.8718 873.002 -118.902 880.726 -154.571C887.858 -187.481 907.8 -215.764 936.875 -234.21L936.942 -234.249C967.863 -254.112 1006.34 -264.313 1048.26 -263.732C1087.94 -263.188 1127.61 -252.72 1159.99 -234.257C1192 -215.817 1216.45 -196.664 1231.73 -163.12C1247.34 -128.5 1252.22 -87.8709 1245.48 -48.7053L1245.48 -48.6593C1240.18 -14.0932 1224.27 17.7068 1196.82 48.5554C1188.56 56.5071 1181.66 62.1979 1175.7 65.9926C1170.13 69.5316 1165.49 71.3337 1161.53 71.5012C1161.33 71.5094 1161.14 71.5138 1160.94 71.5138Z" fill="white"/>
<path fill-rule="evenodd" clip-rule="evenodd" d="M764.723 38.7251C798.683 90.8692 863.75 103.031 909.764 107.644C934.48 110.122 959.73 110.768 982.007 111.339L983.023 111.365C986.366 111.451 989.658 111.536 992.905 111.626C1017.4 112.307 1040.75 113.276 1057.32 117.593C1071.6 121.315 1082.19 130.548 1090.66 146.649C1094.16 153.333 1096.91 160.383 1099.35 167.006C1099.92 168.522 1100.47 170.028 1101.01 171.514C1102.88 176.663 1104.65 181.525 1106.6 185.951C1109.36 192.283 1112.02 196.583 1114.96 199.484C1118.32 202.808 1122.17 204.33 1126.72 204.139C1132 203.916 1138.24 201.469 1145.8 196.658C1154.07 191.407 1163.65 183.498 1175.1 172.478C1213.3 129.562 1235.46 85.3088 1242.82 37.2268V36.9371L1242.89 36.8822C1252.23 -17.5909 1245.42 -74.0885 1223.7 -122.237C1202.47 -168.833 1168.45 -195.481 1123.89 -221.155C1078.77 -246.879 1023.48 -261.465 968.189 -262.225C909.876 -263.04 856.411 -248.893 813.406 -221.349V-221.346L813.065 -221.126C792.293 -207.952 774.982 -191.435 761.594 -172.032C748.85 -153.547 739.934 -132.867 735.105 -110.569C724.352 -60.9209 735.103 -6.57374 764.604 38.5376L764.723 38.7251ZM1125.95 205.638C1121.33 205.638 1117.38 203.964 1113.92 200.539C1110.84 197.501 1108.08 193.055 1105.23 186.546C1103.27 182.077 1101.5 177.193 1099.61 172.021C1099.07 170.538 1098.52 169.035 1097.96 167.521C1095.54 160.943 1092.81 153.947 1089.34 147.338C1081.09 131.632 1070.79 122.636 1056.95 119.027C1040.53 114.749 1017.27 113.785 992.86 113.107C989.621 113.017 986.322 112.932 982.986 112.847L981.97 112.82C959.671 112.249 934.391 111.602 909.616 109.119C876.167 105.766 849.027 99.5664 826.639 90.1646C798.601 78.3908 777.903 61.7687 763.358 39.3483L763.24 39.1637C733.616 -6.24103 722.834 -60.9164 733.656 -110.882C738.527 -133.371 747.516 -154.228 760.378 -172.873C773.833 -192.389 791.24 -209.008 812.101 -222.271L812.264 -222.377C855.566 -250.223 909.483 -264.527 968.204 -263.707C1023.74 -262.944 1079.3 -248.289 1124.63 -222.44C1169.43 -196.622 1203.66 -169.806 1225.05 -122.849C1246.92 -74.3545 1253.76 -17.4457 1244.31 37.395L1244.25 37.6573C1236.82 85.949 1214.54 130.39 1176.17 173.503C1164.61 184.635 1154.95 192.604 1146.61 197.908C1138.81 202.863 1132.33 205.386 1126.78 205.62C1126.51 205.632 1126.23 205.638 1125.95 205.638Z" fill="white"/>
<path fill-rule="evenodd" clip-rule="evenodd" d="M882.209 -262.241C848.026 -262.241 814.814 -258.153 783.389 -250.071C748.531 -241.108 716.595 -227.389 688.457 -209.296C661.7 -192.323 639.395 -171.047 622.158 -146.053C605.735 -122.241 594.254 -95.6046 588.033 -66.8819C581.158 -35.1397 580.937 -2.3023 587.377 30.7174C593.896 64.141 606.895 95.9128 626.013 125.15C669.743 192.548 753.654 208.247 812.968 214.192C844.764 217.379 877.227 218.21 905.872 218.944C910.631 219.066 915.294 219.185 919.891 219.313C951.353 220.187 981.355 221.432 1002.62 226.971C1020.86 231.726 1034.39 243.529 1045.21 264.116C1049.67 272.605 1053.2 281.688 1056.37 290.239C1056.96 291.843 1057.54 293.435 1058.12 295.012L1058.49 296.029C1060.78 302.33 1063.15 308.846 1065.69 314.621C1069.28 322.82 1072.72 328.391 1076.53 332.153C1080.95 336.513 1085.99 338.512 1091.97 338.258C1098.83 337.969 1106.93 334.802 1116.72 328.573C1127.37 321.801 1139.72 311.613 1154.46 297.428C1203.63 242.167 1232.16 185.188 1241.65 123.282L1241.66 123.199C1253.78 52.9778 1245.03 -19.8847 1217.03 -81.9657C1189.69 -141.975 1145.89 -176.285 1088.53 -209.338C1030.46 -242.447 959.292 -261.221 888.132 -262.2C886.153 -262.227 884.181 -262.241 882.209 -262.241ZM1090.96 339.762C1085.02 339.762 1079.95 337.611 1075.49 333.207C1071.55 329.309 1067.99 323.592 1064.32 315.215C1061.78 309.397 1059.39 302.859 1057.1 296.536L1056.73 295.52C1056.15 293.945 1055.57 292.354 1054.98 290.753C1051.83 282.248 1048.31 273.219 1043.89 264.805C1033.28 244.613 1020.05 233.047 1002.25 228.406C981.132 222.905 951.227 221.666 919.846 220.794C915.25 220.666 910.587 220.547 905.842 220.426C877.168 219.691 844.668 218.859 812.82 215.667C769.815 211.356 734.922 203.385 706.137 191.297C670.09 176.159 643.476 154.788 624.773 125.961C605.549 96.5619 592.478 64.613 585.922 31.0005C579.443 -2.21709 579.666 -35.2553 586.584 -67.1954C592.845 -96.1077 604.404 -122.922 620.938 -146.894C638.288 -172.052 660.736 -193.467 687.655 -210.543C715.927 -228.722 748.012 -242.504 783.018 -251.507C816.378 -260.086 851.755 -264.186 888.147 -263.681C959.559 -262.7 1030.98 -243.856 1089.26 -210.624C1146.88 -177.427 1190.88 -142.948 1218.38 -82.5771C1246.5 -20.2382 1255.29 52.9074 1243.13 123.405L1243.13 123.451C1233.6 185.67 1204.95 242.915 1155.53 298.453C1140.67 312.75 1128.26 322.998 1117.52 329.824C1107.49 336.195 1099.16 339.439 1092.03 339.739C1091.67 339.754 1091.32 339.762 1090.96 339.762Z" fill="white"/>
<path fill-rule="evenodd" clip-rule="evenodd" d="M800.833 -262.224C759.022 -262.224 718.4 -257.224 679.966 -247.34C637.335 -236.376 598.267 -219.595 563.847 -197.461C531.106 -176.693 503.813 -150.658 482.72 -120.075C462.624 -90.937 448.575 -58.3427 440.962 -23.1963C432.549 15.644 432.28 55.8232 440.159 96.2255C448.135 137.12 464.039 175.992 487.429 211.763C510.125 246.742 542.434 272.68 586.207 291.062C621.251 305.778 663.762 315.485 716.172 320.739C755.063 324.637 794.746 325.653 829.767 326.55L830.308 326.563C835.913 326.707 841.436 326.848 846.877 327C885.315 328.068 921.967 329.587 947.913 336.35C970.109 342.135 986.589 356.508 999.762 381.582C1005.23 392.019 1009.55 403.077 1013.39 413.471C1014.27 415.851 1015.13 418.214 1015.98 420.546C1018.94 428.671 1021.74 436.347 1024.78 443.29C1029.18 453.346 1033.41 460.187 1038.1 464.82C1043.57 470.216 1049.82 472.685 1057.22 472.377C1065.67 472.02 1075.62 468.131 1087.63 460.488C1100.68 452.196 1115.78 439.729 1133.82 422.376C1193.98 354.775 1228.88 285.075 1240.48 209.336L1240.5 209.253C1255.31 123.358 1244.61 34.2364 1210.36 -41.6939C1176.91 -115.121 1123.33 -157.094 1053.16 -197.522C982.141 -238.017 895.101 -260.978 808.076 -262.175C805.659 -262.207 803.242 -262.224 800.833 -262.224ZM1055.98 473.885C1048.71 473.885 1042.51 471.257 1037.07 465.874C1032.23 461.104 1027.9 454.117 1023.42 443.884C1020.36 436.899 1017.55 429.202 1014.58 421.052C1013.74 418.721 1012.88 416.363 1011.99 413.986C1008.17 403.637 1003.88 392.634 998.443 382.271C985.477 357.593 969.308 343.456 947.543 337.784C921.744 331.061 885.182 329.547 846.833 328.481C841.399 328.33 835.876 328.188 830.271 328.045L829.723 328.031C794.687 327.134 754.966 326.117 716.024 322.213C663.465 316.945 620.814 307.202 585.633 292.428C541.577 273.927 509.048 247.807 486.188 212.574C462.692 176.642 446.716 137.592 438.704 96.5093C430.786 55.9084 431.058 15.5283 439.514 -23.5105C447.167 -58.8466 461.293 -91.6188 481.5 -120.916C502.706 -151.664 530.142 -177.837 563.045 -198.708C597.598 -220.927 636.812 -237.771 679.596 -248.775C720.371 -259.261 763.596 -264.267 808.098 -263.657C895.368 -262.456 982.667 -239.426 1053.9 -198.808C1124.31 -158.235 1178.1 -116.095 1211.71 -42.3052C1246.07 33.88 1256.81 123.289 1241.96 209.458L1241.96 209.505C1230.32 285.557 1195.3 355.524 1134.89 423.403C1116.74 440.866 1101.56 453.393 1088.43 461.739C1076.19 469.526 1066 473.489 1057.28 473.858C1056.84 473.877 1056.41 473.885 1055.98 473.885Z" fill="white"/>
<path fill-rule="evenodd" clip-rule="evenodd" d="M719.459 -262.208C670.022 -262.208 621.99 -256.296 576.544 -244.608C526.136 -231.644 479.939 -211.8 439.237 -185.628C400.513 -161.065 368.232 -130.27 343.283 -94.0964C319.514 -59.6332 302.897 -21.0804 293.893 20.4897C283.942 66.428 283.622 113.95 292.942 161.735C302.374 210.099 321.183 256.071 348.845 298.375C375.696 339.761 413.92 370.447 465.704 392.193C507.143 409.595 557.409 421.074 619.375 427.285C665.345 431.894 712.256 433.095 753.647 434.154C760.49 434.329 767.236 434.501 773.864 434.686C819.278 435.948 862.571 437.742 893.211 445.727C919.372 452.546 938.788 469.49 954.311 499.049C960.783 511.374 965.869 524.43 970.406 536.704C971.444 539.515 972.459 542.304 973.46 545.061L973.594 545.429C977.056 554.908 980.325 563.861 983.876 571.96C989.095 583.885 994.121 591.996 999.681 597.486C1006.19 603.92 1013.63 606.873 1022.48 606.495C1032.5 606.072 1044.3 601.463 1058.55 592.404C1074 582.583 1091.87 567.837 1113.17 547.325C1184.34 467.364 1225.61 384.923 1239.31 295.335L1239.36 295.064C1256.82 193.582 1244.15 88.2986 1203.69 -1.42245C1164.12 -88.2728 1100.76 -137.905 1017.8 -185.707C933.828 -233.586 830.917 -260.735 728.019 -262.149C725.164 -262.188 722.305 -262.208 719.459 -262.208ZM1020.99 608.009C1012.4 608.009 1005.08 604.903 998.643 598.541C992.942 592.914 987.812 584.657 982.512 572.555C978.946 564.413 975.669 555.439 972.2 545.937L972.066 545.567C971.066 542.812 970.05 540.026 969.012 537.218C964.497 524.991 959.427 511.988 952.992 499.738C937.683 470.575 918.564 453.867 892.84 447.161C862.349 439.216 819.144 437.427 773.819 436.168C767.191 435.983 760.445 435.811 753.603 435.636C712.191 434.575 665.252 433.373 619.227 428.76C557.113 422.534 506.706 411.02 465.129 393.559C413.063 371.694 374.62 340.825 347.604 299.186C319.836 256.721 300.956 210.571 291.487 162.018C282.128 114.035 282.45 66.3124 292.443 20.1762C301.488 -21.5843 318.182 -60.3142 342.062 -94.9374C367.125 -131.277 399.549 -162.208 438.435 -186.875C479.27 -213.133 525.613 -233.041 576.175 -246.044C624.364 -258.437 675.466 -264.355 728.039 -263.631C831.183 -262.213 934.347 -234.995 1018.53 -186.993C1101.75 -139.047 1165.3 -89.2465 1205.04 -2.03451C1245.65 88.0111 1258.35 193.669 1240.79 295.497V295.761L1240.74 295.813C1226.95 385.597 1185.58 468.202 1114.24 548.351C1092.82 568.975 1074.88 583.779 1059.35 593.654C1044.87 602.856 1032.83 607.542 1022.54 607.976C1022.02 607.998 1021.51 608.009 1020.99 608.009Z" fill="white"/>
<path fill-rule="evenodd" clip-rule="evenodd" d="M314.657 -173.815L314.618 -173.789C269.918 -145.435 232.649 -109.882 203.843 -68.1168C176.401 -28.3273 157.216 16.1823 146.821 64.1769C135.333 117.213 134.964 172.077 145.723 227.244C156.612 283.079 178.325 336.151 210.259 384.988C226.24 409.618 246.291 431.448 269.86 449.875C291.514 466.807 316.863 481.425 345.199 493.325C393.036 513.413 451.057 526.664 522.579 533.832C575.6 539.147 629.733 540.534 677.492 541.757C685.416 541.96 693.198 542.16 700.85 542.372C753.232 543.828 803.176 545.898 838.508 555.105C868.613 562.951 890.972 582.464 908.868 616.516C916.288 630.652 922.167 645.739 927.423 659.937C928.209 662.082 928.995 664.216 929.766 666.335L930.952 669.574C934.985 680.643 938.788 691.097 942.969 700.628C948.996 714.408 954.808 723.79 961.25 730.154C968.827 737.624 977.485 741.051 987.723 740.615C999.332 740.124 1012.99 734.794 1029.47 724.32C1047.29 712.99 1067.91 695.966 1092.53 672.273C1131.39 628.605 1163.09 583.316 1186.7 537.707C1212.61 487.647 1229.92 435.07 1238.13 381.445V381.143L1238.2 381.09C1258.34 263.945 1243.72 142.409 1197.02 38.848C1151.34 -61.4167 1078.2 -118.712 982.438 -173.891C885.516 -229.155 766.724 -260.491 647.963 -262.124C587.433 -262.951 528.598 -256.145 473.122 -241.877C414.95 -226.916 361.633 -204.016 314.657 -173.815ZM986.011 742.133C976.107 742.133 967.648 738.549 960.212 731.209C953.629 724.709 947.713 715.179 941.605 701.222C937.416 691.647 933.598 681.173 929.558 670.082L928.372 666.844C927.601 664.725 926.823 662.593 926.029 660.451C920.796 646.3 914.932 631.266 907.548 617.205C889.867 583.549 867.805 564.272 838.137 556.539C802.953 547.371 753.106 545.307 700.809 543.854C693.158 543.642 685.377 543.442 677.482 543.24C629.668 542.015 575.507 540.627 522.431 535.307C450.761 528.124 392.599 514.837 344.625 494.691C316.166 482.74 290.705 468.054 268.946 451.042C245.248 432.513 225.085 410.562 209.018 385.798C176.979 336.8 155.194 283.551 144.268 227.528C133.47 172.162 133.841 117.097 145.371 63.8634C155.808 15.6792 175.07 -29.0083 202.622 -68.9578C231.536 -110.88 268.94 -146.565 313.798 -175.024L313.823 -175.041C360.941 -205.338 414.412 -228.308 472.753 -243.312C528.356 -257.613 587.315 -264.442 647.983 -263.606C766.991 -261.969 886.035 -230.564 983.179 -175.176C1079.19 -119.853 1152.52 -62.3896 1198.37 38.2367C1245.23 142.149 1259.87 264.095 1239.61 381.614L1239.56 381.887C1231.31 435.597 1213.97 488.251 1188.02 538.389C1164.35 584.108 1132.58 629.498 1093.6 673.3C1068.87 697.103 1048.16 714.186 1030.27 725.57C1013.56 736.188 999.659 741.592 987.782 742.096C987.189 742.118 986.596 742.133 986.011 742.133Z" fill="white"/>
<path fill-rule="evenodd" clip-rule="evenodd" d="M750.667 -215.153C726.947 -200.092 707.168 -181.214 691.877 -159.043C677.291 -137.895 667.094 -114.237 661.569 -88.727C655.463 -60.5334 655.266 -31.3669 660.987 -2.03812C666.778 27.65 678.324 55.8718 695.306 81.8438C734.14 141.694 808.676 155.637 861.37 160.917C889.637 163.752 918.49 164.49 943.955 165.141L944.778 165.163C948.707 165.263 952.584 165.363 956.394 165.469C984.372 166.247 1011.06 167.354 1029.96 172.281C1046.24 176.522 1058.3 187.04 1067.93 205.382C1071.91 212.955 1075.05 221.027 1077.86 228.622C1078.48 230.271 1079.07 231.909 1079.66 233.527L1079.91 234.222C1082.01 239.962 1083.99 245.384 1086.14 250.286C1089.32 257.545 1092.36 262.48 1095.74 265.818C1099.63 269.661 1104.08 271.423 1109.35 271.198C1115.42 270.943 1122.59 268.135 1131.27 262.615C1140.73 256.602 1151.69 247.554 1164.78 234.952C1208.46 185.862 1233.82 135.243 1242.24 80.2544L1242.24 80.1706C1253.02 17.7918 1245.24 -46.9405 1220.37 -102.102C1196.08 -155.403 1157.17 -185.882 1106.21 -215.248C1054.62 -244.664 991.385 -261.344 928.157 -262.213C861.355 -263.129 800.01 -246.879 750.763 -215.213L750.667 -215.153ZM1108.46 272.699C1103.17 272.699 1098.66 270.788 1094.7 266.872C1091.18 263.397 1088.03 258.316 1084.78 250.88C1082.61 245.937 1080.62 240.493 1078.51 234.73L1078.26 234.032C1077.68 232.418 1077.08 230.783 1076.47 229.138C1073.68 221.588 1070.55 213.569 1066.61 206.071C1057.19 188.125 1045.43 177.843 1029.59 173.716C1010.84 168.827 984.246 167.726 956.35 166.951C952.539 166.845 948.662 166.745 944.741 166.644L943.91 166.622C918.431 165.97 889.541 165.232 861.222 162.392C822.999 158.561 791.974 151.476 766.391 140.73C734.349 127.275 710.691 108.278 694.065 82.6545C676.978 56.5216 665.36 28.1228 659.532 -1.75432C653.773 -31.2817 653.97 -60.649 660.12 -89.0404C665.686 -114.741 675.96 -138.576 690.657 -159.884C706.079 -182.247 726.031 -201.282 749.955 -216.46L750.052 -216.516C799.521 -248.302 861.126 -264.63 928.179 -263.695C991.652 -262.823 1055.14 -246.073 1106.94 -216.533C1158.16 -187.024 1197.27 -156.376 1221.72 -102.714C1246.71 -47.2962 1254.52 17.7236 1243.72 80.3766L1243.71 80.4226C1235.25 135.726 1209.78 186.608 1165.85 235.978C1152.65 248.69 1141.61 257.799 1132.07 263.866C1123.16 269.53 1115.74 272.412 1109.41 272.679C1109.09 272.692 1108.77 272.699 1108.46 272.699Z" fill="white"/>
<path fill-rule="evenodd" clip-rule="evenodd" d="M626.185 -203.4L626.145 -203.374C596.404 -184.508 571.605 -160.853 552.44 -133.064C534.181 -106.59 521.415 -76.9743 514.498 -45.0402C506.854 -9.74854 506.609 26.7598 513.769 63.4711C521.016 100.63 535.467 135.952 556.721 168.457C577.339 200.233 606.692 223.796 646.459 240.496C678.304 253.869 716.937 262.69 764.567 267.465C799.899 271.007 835.972 271.931 867.797 272.747C873.091 272.881 878.28 273.014 883.38 273.156C918.334 274.128 951.665 275.51 975.261 281.66C995.477 286.929 1010.48 300.017 1022.48 322.849C1027.45 332.313 1031.38 342.383 1034.88 351.855C1035.38 353.205 1035.87 354.549 1036.35 355.883L1037.24 358.285C1039.8 365.329 1042.45 372.61 1045.24 378.956C1049.23 388.085 1053.07 394.291 1057.32 398.487C1062.26 403.366 1067.91 405.604 1074.6 405.317C1082.25 404.996 1091.27 401.468 1102.18 394.532C1114.04 386.994 1127.76 375.667 1144.14 359.902C1198.8 298.478 1230.52 235.142 1241.07 166.309L1241.07 166.226C1254.54 88.1627 1244.82 7.17144 1213.7 -61.829C1183.3 -128.546 1134.61 -166.688 1070.85 -203.43C1006.3 -240.232 927.201 -261.099 848.1 -262.187C807.809 -262.739 768.615 -258.205 731.676 -248.705C692.949 -238.746 657.455 -223.503 626.185 -203.4ZM1073.47 406.824C1066.88 406.824 1061.23 404.434 1056.28 399.541C1051.89 395.209 1047.95 388.857 1043.87 379.551C1041.07 373.162 1038.42 365.857 1035.84 358.794L1034.96 356.392C1034.48 355.059 1033.99 353.718 1033.49 352.369C1030 342.944 1026.1 332.927 1021.16 323.538C1009.38 301.102 994.669 288.251 974.891 283.095C951.442 276.983 918.201 275.607 883.336 274.638C878.235 274.495 873.046 274.363 867.783 274.229C835.905 273.412 799.802 272.487 764.419 268.94C716.64 264.15 677.868 255.293 645.885 241.862C605.834 225.043 576.262 201.297 555.48 169.267C534.12 136.602 519.598 101.102 512.313 63.7549C505.114 26.845 505.362 -9.86414 513.049 -45.3536C520.007 -77.4782 532.849 -107.271 551.219 -133.905C570.492 -161.85 595.427 -185.639 625.326 -204.609L625.35 -204.626C656.763 -224.825 692.411 -240.138 731.307 -250.141C768.377 -259.674 807.668 -264.22 848.123 -263.669C927.467 -262.578 1006.83 -241.642 1071.59 -204.716C1135.6 -167.829 1184.49 -129.519 1215.05 -62.4411C1246.29 6.81651 1256.05 88.0938 1242.55 166.432L1242.54 166.478C1231.96 235.622 1200.12 299.227 1145.2 360.929C1128.72 376.804 1114.92 388.191 1102.98 395.782C1091.84 402.862 1082.58 406.465 1074.66 406.798C1074.26 406.815 1073.87 406.824 1073.47 406.824Z" fill="white"/>
<path fill-rule="evenodd" clip-rule="evenodd" d="M418.113 255.033L418.14 255.074C442.91 293.252 478.177 321.564 525.956 341.629C564.197 357.687 610.586 368.28 667.772 374.012C710.195 378.264 753.499 379.374 791.707 380.352C798.023 380.513 804.25 380.673 810.374 380.843C852.296 382.009 892.276 383.667 920.558 391.038C944.741 397.341 962.681 412.999 977.033 440.316C983.001 451.669 987.701 463.738 991.897 475.089C992.853 477.683 993.795 480.258 994.721 482.802L994.803 483.024C998.005 491.816 1001.04 500.12 1004.33 507.625C1009.13 518.609 1013.76 526.085 1018.89 531.154C1024.89 537.069 1031.74 539.773 1039.85 539.436C1049.08 539.048 1059.96 534.799 1073.1 526.447C1087.34 517.387 1103.83 503.781 1123.5 484.85C1189.15 411.073 1227.24 335.008 1239.89 252.364L1239.9 252.28C1256.07 158.555 1244.39 61.3038 1207.02 -21.5578C1170.52 -101.694 1112.04 -147.497 1035.48 -191.614C957.988 -235.801 863.009 -260.856 768.044 -262.161C719.624 -262.826 672.609 -257.38 628.255 -245.974C581.736 -234.01 539.103 -215.698 501.542 -191.545C465.81 -168.878 436.023 -140.464 413.001 -107.085C391.069 -75.2848 375.735 -39.7108 367.427 -1.35223C358.246 41.0367 357.951 84.8876 366.551 128.981C375.252 173.596 392.6 216.006 418.113 255.033ZM1038.48 540.947C1030.56 540.947 1023.8 538.08 1017.85 532.208C1012.58 527.002 1007.85 519.38 1002.96 508.219C999.659 500.672 996.619 492.346 993.409 483.531L993.328 483.309C992.401 480.768 991.459 478.194 990.503 475.601C986.329 464.298 981.644 452.284 975.721 441.005C961.576 414.084 943.933 398.662 920.188 392.472C892.054 385.14 852.17 383.488 810.329 382.325C804.206 382.155 797.979 381.995 791.663 381.834C753.432 380.854 710.103 379.745 667.625 375.487C610.289 369.74 563.761 359.112 525.382 342.994C477.331 322.816 441.849 294.327 416.912 255.905L416.896 255.88C391.264 216.682 373.836 174.082 365.096 129.265C356.457 84.9721 356.754 40.9211 365.978 -1.66642C374.327 -40.2147 389.738 -75.9658 411.78 -107.926C434.916 -141.469 464.846 -170.022 500.74 -192.791C538.434 -217.03 581.212 -235.406 627.886 -247.409C672.368 -258.849 719.529 -264.304 768.066 -263.643C863.275 -262.334 958.507 -237.21 1036.22 -192.9C1113.03 -148.639 1171.71 -102.667 1208.37 -22.1699C1245.86 60.9466 1257.58 158.487 1241.38 252.485L1241.37 252.532C1228.68 335.491 1190.47 411.819 1124.57 485.878C1104.79 504.918 1088.23 518.584 1073.9 527.697C1060.52 536.193 1049.41 540.517 1039.91 540.917C1039.43 540.938 1038.96 540.947 1038.48 540.947Z" fill="white"/>
<path fill-rule="evenodd" clip-rule="evenodd" d="M678.769 -262.2C625.519 -262.2 573.784 -255.832 524.833 -243.243C470.536 -229.278 420.774 -207.903 376.931 -179.711C335.215 -153.248 300.44 -120.075 273.563 -81.1062C247.957 -43.9799 230.055 -2.44836 220.356 42.334C209.637 91.8209 209.293 143.014 219.332 194.49C229.492 246.589 249.753 296.112 279.551 341.682C294.461 364.661 313.168 385.027 335.157 402.22C355.361 418.016 379.011 431.656 405.451 442.759C450.09 461.504 504.233 473.869 570.976 480.559C620.473 485.521 671.001 486.815 715.581 487.956L715.857 487.963C723.131 488.149 730.303 488.334 737.356 488.529C786.258 489.889 832.881 491.822 865.855 500.416C893.996 507.749 914.88 525.978 931.589 557.782C938.506 570.946 943.999 585.045 948.914 598.321C949.789 600.697 950.656 603.06 951.509 605.403L952.206 607.317C955.972 617.663 959.537 627.435 963.422 636.294C969.049 649.148 974.46 657.895 980.465 663.82C987.508 670.773 995.581 673.959 1005.1 673.555C1015.92 673.098 1028.65 668.129 1044 658.363C1060.63 647.795 1079.88 631.909 1102.85 609.799C1139.11 569.053 1168.69 526.791 1190.72 484.228C1214.91 437.498 1231.07 388.422 1238.72 338.363L1238.78 338.101C1257.58 228.788 1243.94 115.366 1200.35 18.7131C1157.73 -74.8448 1089.48 -128.308 1000.12 -179.799C909.675 -231.37 798.824 -260.612 687.991 -262.136C684.915 -262.178 681.835 -262.2 678.769 -262.2ZM1003.5 675.071C994.254 675.071 986.366 671.726 979.427 664.875C973.282 658.813 967.766 649.92 962.058 636.889C958.159 627.986 954.593 618.193 950.812 607.824L950.115 605.91C949.263 603.569 948.403 601.209 947.52 598.835C942.628 585.606 937.149 571.56 930.27 558.471C913.775 527.062 893.188 509.071 865.484 501.85C832.658 493.295 786.125 491.368 737.315 490.011C730.262 489.815 723.092 489.631 715.818 489.444L715.543 489.438C670.937 488.295 620.38 487.001 570.828 482.034C503.936 475.329 449.653 462.928 404.877 444.126C378.316 432.971 354.552 419.265 334.244 403.387C312.125 386.093 293.306 365.606 278.31 342.492C248.407 296.761 228.074 247.062 217.877 194.774C207.799 143.099 208.145 91.7053 218.907 42.0205C228.647 -2.95151 246.625 -44.6609 272.342 -81.9473C299.332 -121.081 334.251 -154.393 376.128 -180.957C420.106 -209.235 470.013 -230.674 524.464 -244.678C576.36 -258.024 631.38 -264.396 688.011 -263.618C799.091 -262.09 910.194 -232.779 1000.86 -181.083C1090.46 -129.45 1158.91 -75.8177 1201.7 18.101C1245.44 115.077 1259.11 228.867 1240.21 338.524V338.778L1240.15 338.831C1232.45 388.964 1216.27 438.113 1192.04 484.909C1169.95 527.581 1140.3 569.946 1103.92 610.826C1080.83 633.046 1061.51 648.991 1044.81 659.613C1029.22 669.523 1016.25 674.568 1005.16 675.035C1004.6 675.06 1004.05 675.071 1003.5 675.071Z" fill="white"/>
<path fill-rule="evenodd" clip-rule="evenodd" d="M597.392 -262.184C536.517 -262.184 477.372 -254.904 421.411 -240.512C359.336 -224.546 302.445 -200.109 252.319 -167.877C204.62 -137.62 164.857 -99.6871 134.124 -55.1278C104.845 -12.6752 84.3761 34.8133 73.2843 86.0193C61.0286 142.605 60.6342 201.14 72.1137 259.999C83.7311 319.568 106.896 376.191 140.966 428.295C158.018 454.576 179.414 477.868 204.562 497.531C227.667 515.597 254.712 531.194 284.947 543.891C335.981 565.322 397.879 579.458 474.179 587.107C530.759 592.778 588.507 594.256 639.457 595.561C647.879 595.776 656.182 595.989 664.343 596.216C720.215 597.77 773.485 599.977 811.152 609.794C843.252 618.159 867.078 638.957 886.138 675.25C894.062 690.34 900.334 706.422 905.931 721.554C907.206 725.01 908.459 728.443 909.69 731.833L909.808 732.163C914.086 743.882 918.126 754.953 922.515 764.964C928.95 779.672 935.155 789.691 942.042 796.486C950.129 804.474 959.404 808.127 970.353 807.675C982.756 807.149 997.338 801.458 1014.92 790.284C1033.96 778.168 1055.97 760.006 1082.21 734.749C1123.66 688.161 1157.48 639.846 1182.67 591.187C1210.32 537.777 1228.78 481.689 1237.54 424.473L1237.55 424.39C1259.13 299.321 1243.55 169.55 1193.68 58.984C1144.95 -47.9883 1066.92 -109.114 964.756 -167.983C861.355 -226.939 734.634 -260.369 607.935 -262.111C604.418 -262.16 600.897 -262.184 597.392 -262.184ZM968.529 809.194C957.951 809.194 948.929 805.37 941.004 797.538C933.976 790.61 927.667 780.443 921.151 765.556C916.747 755.501 912.7 744.416 908.415 732.671L908.296 732.34C907.065 728.95 905.813 725.521 904.538 722.067C898.963 706.983 892.706 690.955 884.818 675.938C865.973 640.042 842.444 619.48 810.781 611.228C773.262 601.45 720.085 599.249 664.302 597.698C656.141 597.471 647.841 597.258 639.419 597.043C588.443 595.737 530.665 594.258 474.032 588.582C397.583 580.918 335.544 566.746 284.373 545.257C254.017 532.51 226.857 516.845 203.648 498.699C178.37 478.935 156.864 455.52 139.725 429.105C105.55 376.841 82.313 320.04 70.6577 260.283C59.1404 201.225 59.5363 142.489 71.8357 85.7059C82.9676 34.3101 103.514 -13.3562 132.903 -55.9688C163.749 -100.693 203.657 -138.764 251.517 -169.123C301.776 -201.441 358.813 -225.942 421.042 -241.947C480.353 -257.2 543.244 -264.486 607.955 -263.593C734.9 -261.848 861.874 -228.348 965.497 -169.269C1067.91 -110.255 1146.13 -48.9612 1195.03 58.3719C1245.02 169.194 1260.64 299.253 1239.03 424.597L1239.02 424.641C1230.23 482.036 1211.72 538.298 1183.99 591.868C1158.74 640.638 1124.85 689.054 1083.27 735.775C1056.93 761.14 1034.84 779.369 1015.72 791.528C997.908 802.851 983.089 808.623 970.412 809.157C969.782 809.186 969.152 809.194 968.529 809.194Z" fill="white"/>
<path fill-rule="evenodd" clip-rule="evenodd" d="M556.702 -262.176C492.015 -262.176 429.167 -254.44 369.701 -239.145C303.736 -222.18 243.281 -196.211 190.014 -161.96C139.324 -129.806 97.0659 -89.4929 64.405 -42.1378C33.2898 2.97719 11.5361 53.4445 -0.250354 107.863C-13.2748 167.997 -13.6937 230.203 -1.49505 292.754C10.8511 356.058 35.4686 416.232 71.6738 471.601C89.7972 499.533 112.537 524.29 139.265 545.188C163.821 564.387 192.564 580.963 224.695 594.456C278.928 617.231 344.705 632.253 425.782 640.38C485.888 646.405 547.248 647.977 601.385 649.363C610.347 649.592 619.166 649.818 627.835 650.059C687.197 651.71 743.795 654.055 783.805 664.483C817.876 673.362 843.17 695.445 863.416 733.983C871.83 749.996 878.488 767.09 884.441 783.17C885.701 786.586 886.939 789.98 888.162 793.337L888.525 794.337C893.084 806.83 897.384 818.627 902.062 829.297C908.912 844.947 915.51 855.595 922.827 862.82C931.441 871.327 941.308 875.224 952.977 874.735C966.172 874.18 981.674 868.126 1000.38 856.24C1020.56 843.406 1043.95 824.103 1071.89 797.219C1115.94 747.713 1151.88 696.372 1178.65 644.667C1208.03 587.908 1227.65 528.302 1236.96 467.5L1236.97 467.417C1259.9 334.517 1243.33 196.617 1190.34 79.1194C1138.56 -34.5559 1055.64 -99.5142 947.068 -162.075C837.195 -224.723 702.538 -260.246 567.905 -262.098C564.169 -262.15 560.427 -262.176 556.702 -262.176ZM951.042 876.262C939.796 876.262 930.21 872.194 921.789 863.872C914.331 856.514 907.629 845.718 900.698 829.89C896.005 819.183 891.698 807.364 887.132 794.848L886.768 793.848C885.545 790.491 884.307 787.097 883.047 783.689C877.116 767.646 870.474 750.611 862.097 734.672C842.066 696.529 817.068 674.683 783.434 665.918C743.572 655.528 687.066 653.189 627.795 651.541C619.125 651.3 610.308 651.074 601.361 650.845C547.184 649.457 485.795 647.885 425.634 641.855C344.407 633.713 278.492 618.656 224.121 595.823C191.868 582.279 163.011 565.635 138.352 546.355C111.494 525.355 88.6429 500.477 70.4328 472.412C34.1223 416.881 9.43294 356.53 -2.95029 293.037C-15.1875 230.289 -14.7664 167.882 -1.69892 107.55C10.1291 52.9413 31.9591 2.29621 63.1848 -42.9789C95.9584 -90.4992 138.36 -130.95 189.212 -163.206C242.613 -197.543 303.213 -223.576 369.331 -240.581C432.348 -256.788 499.158 -264.533 567.926 -263.58C702.804 -261.725 837.714 -226.133 947.802 -163.36C1056.63 -100.655 1139.75 -35.5289 1191.69 78.5073C1244.8 196.26 1261.4 334.449 1238.44 467.623L1238.43 467.669C1229.1 528.65 1209.43 588.429 1179.97 645.348C1153.14 697.164 1117.13 748.602 1072.95 798.242C1044.91 825.237 1021.45 844.606 1001.18 857.485C982.245 869.526 966.499 875.647 953.036 876.217C952.369 876.247 951.702 876.262 951.042 876.262Z" fill="white"/>
<path fill-rule="evenodd" clip-rule="evenodd" d="M475.327 -262.159C403.013 -262.159 332.756 -253.511 266.279 -236.414C192.536 -217.449 124.952 -188.417 65.4036 -150.126C8.7294 -114.176 -38.5173 -69.1043 -75.0331 -16.1591C-109.822 34.2822 -134.143 90.7072 -147.321 151.55C-161.883 218.782 -162.352 288.33 -148.713 358.262C-134.911 429.038 -107.388 496.311 -66.9111 558.214C-46.6452 589.448 -21.2175 617.131 8.67009 640.499C36.1268 661.967 68.2651 680.501 104.192 695.588C164.822 721.049 238.353 737.841 328.984 746.928C396.084 753.656 464.588 755.412 525.027 756.961L530.786 757.109C538.901 757.324 546.917 757.532 554.822 757.746C621.151 759.592 684.391 762.215 729.101 773.863C767.132 783.77 795.369 808.424 817.973 851.446C827.38 869.371 834.816 888.451 841.458 906.398C842.867 910.237 844.26 914.038 845.632 917.81L845.921 918.603C851.029 932.63 855.862 945.886 861.155 957.965C868.806 975.46 876.197 987.382 884.403 995.489C894.07 1005.03 905.131 1009.4 918.223 1008.85C932.998 1008.23 950.352 1001.46 971.295 988.153C993.913 973.77 1020.06 952.185 1051.24 922.174C1100.5 866.822 1140.67 809.431 1170.6 751.626C1203.45 688.17 1225.38 621.533 1235.79 553.555L1235.8 553.471C1261.43 404.91 1242.91 250.751 1183.67 119.391C1156.13 58.9434 1119.09 7.46765 1070.43 -37.9742C1030.15 -75.5866 981.199 -110.217 911.707 -150.259C788.883 -220.293 638.35 -260.003 487.849 -262.073C483.673 -262.13 479.49 -262.159 475.327 -262.159ZM916.014 1010.38C903.478 1010.38 892.78 1005.84 883.366 996.541C875.018 988.301 867.523 976.23 859.791 958.557C854.483 946.435 849.65 933.163 844.527 919.107L844.238 918.314C842.867 914.55 841.48 910.748 840.064 906.917C833.444 889.007 826.031 869.986 816.653 852.135C794.265 809.513 766.324 785.097 728.727 775.301C684.169 763.682 621.021 761.066 554.781 759.228C546.877 759.014 538.862 758.806 530.748 758.591L524.989 758.443C464.523 756.894 395.992 755.138 328.836 748.402C238.056 739.301 164.386 722.473 103.617 696.955C67.5698 681.817 35.3181 663.215 7.75677 641.667C-22.2606 618.196 -47.8002 590.392 -68.1521 559.024C-108.735 496.96 -136.329 429.51 -150.169 358.546C-163.846 288.415 -163.376 218.666 -148.771 151.236C-135.551 90.2033 -111.153 33.6005 -76.2541 -17.0002C-39.6241 -70.1106 7.76641 -115.32 64.6015 -151.372C124.283 -189.75 192.013 -218.844 265.909 -237.849C336.341 -255.964 411.013 -264.609 487.869 -263.555C638.617 -261.481 789.401 -221.701 912.448 -151.544C982.037 -111.442 1031.08 -76.75 1071.44 -39.0568C1120.24 6.51991 1157.4 58.1491 1185.02 118.779C1244.38 250.392 1262.94 404.844 1237.27 553.677L1237.26 553.724C1226.83 621.878 1204.85 688.692 1171.91 752.308C1141.93 810.217 1101.69 867.718 1052.31 923.197C1021.02 953.326 994.795 974.963 972.096 989.398C950.923 1002.85 933.324 1009.7 918.282 1010.33C917.519 1010.36 916.763 1010.38 916.014 1010.38Z" fill="white"/>
<path fill-rule="evenodd" clip-rule="evenodd" d="M516.013 -262.167C447.513 -262.167 380.961 -253.975 317.99 -237.779C248.136 -219.815 184.116 -192.314 127.709 -156.042C74.0267 -121.991 29.2746 -79.2987 -5.31376 -29.1486C-38.266 18.6296 -61.303 72.0765 -73.7855 129.707C-87.5788 193.39 -88.0228 259.267 -75.1044 325.509C-62.0295 392.549 -35.9597 456.272 2.38128 514.908C21.5759 544.491 45.6596 570.71 73.9674 592.844C99.9734 613.177 130.414 630.733 164.443 645.023C221.875 669.14 291.528 685.048 377.383 693.653C441.035 700.035 506.01 701.698 563.336 703.166C572.811 703.408 582.149 703.648 591.329 703.903C654.177 705.651 714.096 708.134 756.449 719.172C792.508 728.568 819.277 751.937 840.694 792.714C849.605 809.691 856.655 827.771 862.949 844.785C864.38 848.675 865.789 852.535 867.175 856.352C872.023 869.652 876.605 882.22 881.609 893.631C888.859 910.2 895.85 921.485 903.611 929.155C912.759 938.188 923.227 942.315 935.6 941.789C949.589 941.203 966.024 934.794 985.833 922.197C1007.22 908.607 1031.99 888.163 1061.57 859.701C1108.22 807.268 1146.27 752.901 1174.62 698.15C1205.74 638.041 1226.51 574.914 1236.37 510.528L1236.38 510.445C1260.66 369.714 1243.13 223.684 1187.01 99.2556C1160.92 41.9985 1125.83 -6.75925 1079.74 -49.8025C1041.59 -85.432 995.218 -118.236 929.388 -156.166C813.035 -222.507 670.443 -260.124 527.877 -262.085C523.92 -262.14 519.957 -262.167 516.013 -262.167ZM933.502 943.315C921.626 943.315 911.492 939.017 902.573 930.207C894.671 922.404 887.576 910.971 880.245 894.224C875.226 882.768 870.637 870.186 865.781 856.855C864.395 853.039 862.986 849.186 861.556 845.303C855.284 828.334 848.256 810.306 839.375 793.404C818.173 753.019 791.7 729.89 756.079 720.607C713.873 709.608 654.047 707.13 591.288 705.385C582.109 705.13 572.772 704.89 563.299 704.648C505.946 703.179 440.942 701.514 377.235 695.128C291.231 686.508 221.439 670.564 163.869 646.389C129.719 632.048 99.1638 614.426 73.0541 594.011C44.6165 571.776 20.4209 545.435 1.14028 515.718C-37.306 456.921 -63.4476 393.021 -76.5589 325.793C-89.5166 259.352 -89.0711 193.274 -75.2348 129.394C-62.7108 71.5726 -39.5975 17.9487 -6.534 -29.9896C28.1671 -80.305 73.0637 -123.135 126.907 -157.289C183.448 -193.646 247.613 -221.21 317.62 -239.215C384.344 -256.375 455.091 -264.573 527.897 -263.567C670.71 -261.603 813.554 -223.917 930.129 -157.452C996.056 -119.461 1042.51 -86.5946 1080.75 -50.8851C1126.99 -7.70699 1162.19 41.2042 1188.36 98.6443C1244.6 223.327 1262.17 369.646 1237.86 510.649L1237.85 510.697C1227.97 575.263 1207.14 638.561 1175.94 698.831C1147.53 753.693 1109.41 808.164 1062.63 860.731C1032.94 889.296 1008.09 909.8 986.633 923.442C966.595 936.187 949.922 942.671 935.659 943.271C934.933 943.3 934.214 943.315 933.502 943.315Z" fill="white"/>
</g>
</g>
<defs>
<clipPath id="clip0">
<rect width="1112" height="741" fill="white"/>
</clipPath>
</defs>
</svg>
