<svg width="50" height="50" viewBox="0 0 50 50" fill="none" xmlns="http://www.w3.org/2000/svg">
<path fill-rule="evenodd" clip-rule="evenodd" d="M25 47C37.1503 47 47 37.1503 47 25C47 12.8497 37.1503 3 25 3C12.8497 3 3 12.8497 3 25C3 37.1503 12.8497 47 25 47ZM25 50C38.8071 50 50 38.8071 50 25C50 11.1929 38.8071 0 25 0C11.1929 0 0 11.1929 0 25C0 38.8071 11.1929 50 25 50Z" fill="#AF94CE"/>
<path d="M33.8751 23.7901V26.5901H26.4551V34.1151H23.4801V26.5901H16.0601V23.7901H23.4801V16.2651H26.4551V23.7901H33.8751Z" fill="#AF94CE"/>
</svg>
